<?xml version="1.0" encoding="UTF-8" standalone="no"?>
<!DOCTYPE svg PUBLIC "-//W3C//DTD SVG 1.1//EN"
 "http://www.w3.org/Graphics/SVG/1.1/DTD/svg11.dtd">
<!-- Generated by graphviz version 5.0.0 (20220707.1540)
 -->
<!-- Title: dependencies Pages: 1 -->
<svg width="438pt" height="250pt"
 viewBox="0.00 0.00 438.00 249.80" xmlns="http://www.w3.org/2000/svg" xmlns:xlink="http://www.w3.org/1999/xlink">
<g id="graph0" class="graph" transform="scale(1 1) rotate(0) translate(4 245.8)">
<title>dependencies</title>
<polygon fill="white" stroke="transparent" points="-4,4 -4,-245.8 434,-245.8 434,4 -4,4"/>
<text text-anchor="middle" x="215" y="-8.2" font-family="sans-serif" font-size="14.00">dependencies</text>
<g id="clust1" class="cluster">
<title>cluster_AppModule</title>
<polygon fill="none" stroke="black" stroke-dasharray="1,5" points="8,-108.8 8,-233.8 379,-233.8 379,-108.8 8,-108.8"/>
</g>
<g id="clust3" class="cluster">
<title>cluster_AppModule_imports</title>
<polygon fill="none" stroke="black" points="154,-116.8 154,-168.8 371,-168.8 371,-116.8 154,-116.8"/>
</g>
<g id="clust6" class="cluster">
<title>cluster_AppModule_providers</title>
<polygon fill="none" stroke="black" points="16,-116.8 16,-168.8 146,-168.8 146,-116.8 16,-116.8"/>
</g>
<g id="clust7" class="cluster">
<title>cluster_AuthModule</title>
<polygon fill="none" stroke="black" stroke-dasharray="1,5" points="106,-32.8 106,-100.8 252,-100.8 252,-32.8 106,-32.8"/>
</g>
<g id="clust12" class="cluster">
<title>cluster_AuthModule_providers</title>
<polygon fill="none" stroke="black" points="114,-40.8 114,-92.8 244,-92.8 244,-40.8 114,-40.8"/>
</g>
<g id="clust13" class="cluster">
<title>cluster_BooksModule</title>
<polygon fill="none" stroke="black" stroke-dasharray="1,5" points="260,-32.8 260,-100.8 422,-100.8 422,-32.8 260,-32.8"/>
</g>
<g id="clust18" class="cluster">
<title>cluster_BooksModule_providers</title>
<polygon fill="none" stroke="black" points="268,-40.8 268,-92.8 414,-92.8 414,-40.8 268,-40.8"/>
</g>
<!-- AuthModule -->
<g id="node1" class="node">
<title>AuthModule</title>
<polygon fill="#8dd3c7" stroke="black" points="249.55,-160.8 246.55,-164.8 225.55,-164.8 222.55,-160.8 162.45,-160.8 162.45,-124.8 249.55,-124.8 249.55,-160.8"/>
<text text-anchor="middle" x="206" y="-138.6" font-family="Times,serif" font-size="14.00">AuthModule</text>
</g>
<!-- AppModule -->
<g id="node3" class="node">
<title>AppModule</title>
<polygon fill="#8dd3c7" stroke="black" points="247.66,-225.8 244.66,-229.8 223.66,-229.8 220.66,-225.8 164.34,-225.8 164.34,-189.8 247.66,-189.8 247.66,-225.8"/>
<text text-anchor="middle" x="206" y="-203.6" font-family="Times,serif" font-size="14.00">AppModule</text>
</g>
<!-- AuthModule&#45;&gt;AppModule -->
<g id="edge1" class="edge">
<title>AuthModule&#45;&gt;AppModule</title>
<path fill="none" stroke="black" d="M206,-160.91C206,-160.91 206,-179.79 206,-179.79"/>
<polygon fill="black" stroke="black" points="202.5,-179.79 206,-189.79 209.5,-179.79 202.5,-179.79"/>
</g>
<!-- BooksModule -->
<g id="node2" class="node">
<title>BooksModule</title>
<polygon fill="#8dd3c7" stroke="black" points="362.84,-160.8 359.84,-164.8 338.84,-164.8 335.84,-160.8 267.16,-160.8 267.16,-124.8 362.84,-124.8 362.84,-160.8"/>
<text text-anchor="middle" x="315" y="-138.6" font-family="Times,serif" font-size="14.00">BooksModule</text>
</g>
<!-- BooksModule&#45;&gt;AppModule -->
<g id="edge2" class="edge">
<title>BooksModule&#45;&gt;AppModule</title>
<path fill="none" stroke="black" d="M315,-160.91C315,-180.14 315,-207.8 315,-207.8 315,-207.8 257.83,-207.8 257.83,-207.8"/>
<polygon fill="black" stroke="black" points="257.83,-204.3 247.83,-207.8 257.83,-211.3 257.83,-204.3"/>
</g>
<!-- AppService -->
<g id="node4" class="node">
<title>AppService</title>
<ellipse fill="#fdb462" stroke="black" cx="81" cy="-142.8" rx="56.75" ry="18"/>
<text text-anchor="middle" x="81" y="-138.6" font-family="Times,serif" font-size="14.00">AppService</text>
</g>
<!-- AppService&#45;&gt;AppModule -->
<g id="edge3" class="edge">
<title>AppService&#45;&gt;AppModule</title>
<path fill="none" stroke="black" d="M81,-160.91C81,-180.14 81,-207.8 81,-207.8 81,-207.8 154.03,-207.8 154.03,-207.8"/>
<polygon fill="black" stroke="black" points="154.03,-211.3 164.03,-207.8 154.03,-204.3 154.03,-211.3"/>
</g>
<!-- JwtStrategy -->
<g id="node5" class="node">
<title>JwtStrategy</title>
<ellipse fill="#fdb462" stroke="black" cx="179" cy="-66.8" rx="56.77" ry="18"/>
<text text-anchor="middle" x="179" y="-62.6" font-family="Times,serif" font-size="14.00">JwtStrategy</text>
</g>
<!-- JwtStrategy&#45;&gt;AuthModule -->
<g id="edge4" class="edge">
<title>JwtStrategy&#45;&gt;AuthModule</title>
<path fill="none" stroke="black" d="M198.93,-83.67C198.93,-83.67 198.93,-114.65 198.93,-114.65"/>
<polygon fill="black" stroke="black" points="195.43,-114.65 198.93,-124.65 202.43,-114.65 195.43,-114.65"/>
</g>
<!-- BooksService -->
<g id="node6" class="node">
<title>BooksService</title>
<ellipse fill="#fdb462" stroke="black" cx="341" cy="-66.8" rx="64.86" ry="18"/>
<text text-anchor="middle" x="341" y="-62.6" font-family="Times,serif" font-size="14.00">BooksService</text>
</g>
<!-- BooksService&#45;&gt;BooksModule -->
<g id="edge5" class="edge">
<title>BooksService&#45;&gt;BooksModule</title>
<path fill="none" stroke="black" d="M319.5,-84.05C319.5,-84.05 319.5,-114.56 319.5,-114.56"/>
<polygon fill="black" stroke="black" points="316,-114.56 319.5,-124.56 323,-114.56 316,-114.56"/>
</g>
</g>
</svg>
